# xmcd
#
# Track frame offsets:
#	150
#	17402
#	30754
#	54231
#	69908
#	98785
#	110262
#	125189
#	138991
#	156018
#
# Disc length: 2482 seconds
#
# Revision: 0
# Processed by: cddbd v1.5.2PL0 Copyright (c) Steve Scherf et al.
# Submitted via: EasyCDDAExtractor 11.5.0.1
#
DISCID=7109b00a
DTITLE=Goran Bregovic - Портраita
DYEAR=2008
DGENRE=World
TTITLE0=Kalasnjikov
TTITLE1=Borino Oro
TTITLE2=Elo Hi
TTITLE3=Kustino Oro
TTITLE4=Ederlezi
TTITLE5=Talijanska
TTITLE6=Cocek
TTITLE7=Tango
TTITLE8=Man From Reno
TTITLE9=Lullabye
EXTD=
EXTT0=
EXTT1=
EXTT2=
EXTT3=
EXTT4=
EXTT5=
EXTT6=
EXTT7=
EXTT8=
EXTT9=
PLAYORDER=
